<svg width="22" height="22" viewBox="0 0 22 22" fill="none" xmlns="http://www.w3.org/2000/svg">
<path fill-rule="evenodd" clip-rule="evenodd" d="M21.5566 11.2456C21.5566 10.4661 21.4865 9.71657 21.3564 8.997L10.9978 8.99561L10.9982 13.2479L16.9174 13.2487C16.6626 14.6229 15.8878 15.787 14.723 16.5664L14.7233 19.3246L18.2778 19.3251C20.3574 17.4116 21.5569 14.5935 21.5566 11.2456Z" fill="#4285F4"/>
<path fill-rule="evenodd" clip-rule="evenodd" d="M10.9997 21.9878C13.9693 21.9882 16.4588 21.0042 18.2784 19.3256L14.7236 16.567C13.7389 17.2264 12.4791 17.616 10.9993 17.6158C8.13477 17.6154 5.70996 15.6814 4.84484 13.083L1.17041 13.0825L1.17068 15.9306C2.98075 19.5234 6.70041 21.9872 10.9997 21.9878Z" fill="#34A853"/>
<path fill-rule="evenodd" clip-rule="evenodd" d="M4.84542 13.0833C4.62538 12.4237 4.50034 11.7191 4.50028 10.9945C4.50022 10.2699 4.62516 9.56537 4.84509 8.9058L4.84487 6.05748L1.17015 6.05684C0.425328 7.54084 0.000492577 9.21977 0.000631905 10.9937C0.000771233 12.7677 0.42587 14.4468 1.17093 15.931L4.84542 13.0833Z" fill="#FBBC05"/>
<path fill-rule="evenodd" clip-rule="evenodd" d="M10.9981 4.37334C12.6128 4.37356 14.0627 4.92837 15.2026 6.01778L18.3568 2.86536C16.4519 1.09132 13.9622 0.00172604 10.9977 0.00132606C6.69833 0.000745993 2.97915 2.46356 1.16977 6.05586L4.84448 8.90441C5.70909 6.30631 8.13353 4.37295 10.9981 4.37334Z" fill="#EA4335"/>
</svg>
